<svg width="174" height="20" viewBox="0 0 174 20" fill="none" xmlns="http://www.w3.org/2000/svg">
<path d="M11.136 19.24C9.616 19.24 8.432 18.932 7.584 18.316C6.744 17.692 6.244 16.756 6.084 15.508H5.532L5.928 13.204C6.088 13.956 6.528 14.56 7.248 15.016C7.968 15.472 8.816 15.7 9.792 15.7C10.544 15.7 11.12 15.564 11.52 15.292C11.92 15.012 12.12 14.608 12.12 14.08C12.12 13.712 12.004 13.404 11.772 13.156C11.54 12.908 11.172 12.708 10.668 12.556C10.164 12.404 9.5 12.284 8.676 12.196C6.916 12.028 5.456 11.672 4.296 11.128C3.136 10.584 2.268 9.86 1.692 8.956C1.124 8.044 0.84 6.944 0.84 5.656C0.84 4 1.344 2.7 2.352 1.756C3.368 0.811999 4.808 0.339999 6.672 0.339999C7.648 0.339999 8.488 0.483999 9.192 0.771999C9.896 1.052 10.448 1.472 10.848 2.032C11.256 2.592 11.504 3.288 11.592 4.12H12.144L11.736 6.352C11.6 5.592 11.188 4.988 10.5 4.54C9.82 4.092 8.984 3.868 7.992 3.868C7.328 3.868 6.812 3.984 6.444 4.216C6.084 4.448 5.904 4.784 5.904 5.224C5.904 5.544 6.016 5.832 6.24 6.088C6.464 6.336 6.828 6.552 7.332 6.736C7.836 6.912 8.512 7.052 9.36 7.156C11.136 7.332 12.6 7.688 13.752 8.224C14.912 8.752 15.772 9.468 16.332 10.372C16.9 11.276 17.184 12.38 17.184 13.684C17.184 15.46 16.664 16.832 15.624 17.8C14.592 18.76 13.096 19.24 11.136 19.24ZM1.02 19V13.204H5.928V19H1.02ZM11.736 6.352V0.628H16.644V6.352H11.736ZM27.5856 19.324C26.1616 19.324 24.8576 19.092 23.6736 18.628C22.4976 18.156 21.4776 17.496 20.6136 16.648C19.7576 15.792 19.0936 14.784 18.6216 13.624C18.1496 12.456 17.9136 11.172 17.9136 9.772C17.9136 8.38 18.1416 7.108 18.5976 5.956C19.0536 4.804 19.6816 3.808 20.4816 2.968C21.2816 2.128 22.2016 1.48 23.2416 1.024C24.2816 0.559999 25.3816 0.327999 26.5416 0.327999C27.6296 0.327999 28.5536 0.535999 29.3136 0.951999C30.0816 1.36 30.6816 1.976 31.1136 2.8C31.5536 3.616 31.8296 4.632 31.9416 5.848H32.9496L32.0976 8.116C31.8176 7.156 31.2776 6.392 30.4776 5.824C29.6856 5.256 28.7416 4.972 27.6456 4.972C26.7256 4.972 25.9176 5.176 25.2216 5.584C24.5256 5.984 23.9816 6.544 23.5896 7.264C23.2056 7.984 23.0136 8.82 23.0136 9.772C23.0136 10.492 23.1216 11.152 23.3376 11.752C23.5616 12.352 23.8776 12.872 24.2856 13.312C24.6936 13.744 25.1776 14.08 25.7376 14.32C26.2976 14.56 26.9136 14.68 27.5856 14.68C28.3696 14.68 29.0776 14.52 29.7096 14.2C30.3416 13.872 30.8616 13.42 31.2696 12.844C31.6776 12.26 31.9456 11.58 32.0736 10.804L37.0896 11.572C36.8416 13.124 36.2856 14.48 35.4216 15.64C34.5656 16.8 33.4696 17.704 32.1336 18.352C30.7976 19 29.2816 19.324 27.5856 19.324ZM32.0976 8.116V0.639999H36.9936V8.116H32.0976ZM46.4807 19.24C44.7767 19.24 43.4207 18.892 42.4127 18.196C41.4047 17.492 40.7847 16.536 40.5527 15.328H40.1327L40.4687 13.528C40.6927 14.832 41.3127 15.848 42.3287 16.576C43.3447 17.304 44.6407 17.668 46.2167 17.668C47.6247 17.668 48.7007 17.38 49.4447 16.804C50.1887 16.22 50.5607 15.384 50.5607 14.296C50.5607 13.576 50.3927 12.976 50.0567 12.496C49.7207 12.008 49.1767 11.612 48.4247 11.308C47.6807 10.996 46.6847 10.748 45.4367 10.564C43.8927 10.34 42.6247 10.004 41.6327 9.556C40.6487 9.108 39.9167 8.536 39.4367 7.84C38.9567 7.144 38.7167 6.316 38.7167 5.356C38.7167 3.892 39.2167 2.752 40.2167 1.936C41.2247 1.12 42.6087 0.711999 44.3687 0.711999C45.4727 0.711999 46.4087 0.871999 47.1767 1.192C47.9527 1.504 48.5647 1.956 49.0127 2.548C49.4607 3.14 49.7527 3.844 49.8887 4.66H50.2967L49.9487 6.424C49.7407 5.128 49.1607 4.116 48.2087 3.388C47.2647 2.652 46.0647 2.284 44.6087 2.284C43.3527 2.284 42.3607 2.548 41.6327 3.076C40.9047 3.596 40.5407 4.328 40.5407 5.272C40.5407 5.888 40.7127 6.42 41.0567 6.868C41.4007 7.308 41.9527 7.684 42.7127 7.996C43.4727 8.3 44.4727 8.564 45.7127 8.788C47.3127 9.036 48.6007 9.384 49.5767 9.832C50.5527 10.28 51.2647 10.86 51.7127 11.572C52.1687 12.276 52.3967 13.144 52.3967 14.176C52.3967 15.776 51.8807 17.02 50.8487 17.908C49.8167 18.796 48.3607 19.24 46.4807 19.24ZM38.6687 19V13.528H40.4687V19H38.6687ZM49.9487 6.424V0.951999H51.7487V6.424H49.9487ZM57.6296 15.616C57.6296 16.288 57.7576 16.796 58.0136 17.14C58.2696 17.476 58.6616 17.644 59.1896 17.644C59.7096 17.644 60.1016 17.472 60.3656 17.128C60.6296 16.776 60.7616 16.272 60.7616 15.616V14.428H62.3216V15.604C62.3216 16.372 62.2056 17.028 61.9736 17.572C61.7496 18.108 61.4056 18.52 60.9416 18.808C60.4776 19.088 59.8816 19.228 59.1536 19.228C58.4096 19.228 57.7976 19.084 57.3176 18.796C56.8376 18.5 56.4816 18.084 56.2496 17.548C56.0176 17.012 55.9016 16.368 55.9016 15.616L55.9136 7.708H53.6336V6.22H55.9136V2.98H57.6416V6.22H62.1536L62.1416 7.708H57.6416L57.6296 15.616ZM74.5918 19C74.2638 19 74.0118 18.896 73.8358 18.688C73.6678 18.48 73.5838 18.188 73.5838 17.812V13.972L73.7398 13.576L73.6558 12.124L73.5838 11.368V10.396C73.5838 9.74 73.4478 9.204 73.1758 8.788C72.9118 8.372 72.5278 8.064 72.0238 7.864C71.5198 7.664 70.9118 7.564 70.1998 7.564C69.1358 7.564 68.3118 7.776 67.7278 8.2C67.1518 8.616 66.7678 9.244 66.5758 10.084L64.9198 9.736C65.0798 8.896 65.3798 8.2 65.8198 7.648C66.2598 7.088 66.8438 6.672 67.5718 6.4C68.3078 6.12 69.2038 5.98 70.2598 5.98C71.3638 5.98 72.2878 6.136 73.0318 6.448C73.7838 6.752 74.3518 7.22 74.7358 7.852C75.1198 8.484 75.3118 9.3 75.3118 10.3V17.512H77.1958V19H74.5918ZM68.5678 19.168C67.2398 19.168 66.2318 18.876 65.5438 18.292C64.8558 17.7 64.5118 16.832 64.5118 15.688C64.5118 14.632 64.8158 13.828 65.4238 13.276C66.0318 12.716 67.0078 12.296 68.3518 12.016L74.0998 10.792V12.028L68.6398 13.264C67.8558 13.448 67.2678 13.72 66.8758 14.08C66.4918 14.432 66.2998 14.932 66.2998 15.58C66.2998 16.284 66.5158 16.812 66.9478 17.164C67.3798 17.508 68.0118 17.68 68.8438 17.68C69.7638 17.68 70.5878 17.468 71.3158 17.044C72.0438 16.62 72.6158 15.996 73.0318 15.172C73.4478 14.348 73.6558 13.332 73.6558 12.124L74.1118 14.956H73.4998C73.2998 16.292 72.7798 17.328 71.9398 18.064C71.1078 18.8 69.9838 19.168 68.5678 19.168ZM82.3449 15.616C82.3449 16.288 82.4729 16.796 82.7289 17.14C82.9849 17.476 83.3769 17.644 83.9049 17.644C84.4249 17.644 84.8169 17.472 85.0809 17.128C85.3449 16.776 85.4769 16.272 85.4769 15.616V14.428H87.0369V15.604C87.0369 16.372 86.9209 17.028 86.6889 17.572C86.4649 18.108 86.1209 18.52 85.6569 18.808C85.1929 19.088 84.5969 19.228 83.8689 19.228C83.1249 19.228 82.5129 19.084 82.0329 18.796C81.5529 18.5 81.1969 18.084 80.9649 17.548C80.7329 17.012 80.6169 16.368 80.6169 15.616L80.6289 7.708H78.3489V6.22H80.6289V2.98H82.3569V6.22H86.8689L86.8569 7.708H82.3569L82.3449 15.616ZM95.5871 19.228C94.2671 19.228 93.1231 18.948 92.1551 18.388C91.1871 17.828 90.4391 17.056 89.9111 16.072C89.3831 15.08 89.1191 13.94 89.1191 12.652C89.1191 11.348 89.3831 10.196 89.9111 9.196C90.4471 8.196 91.1911 7.412 92.1431 6.844C93.1031 6.276 94.2191 5.992 95.4911 5.992C96.7711 5.992 97.8791 6.272 98.8151 6.832C99.7511 7.392 100.471 8.168 100.975 9.16C101.479 10.152 101.731 11.296 101.731 12.592C101.731 12.744 101.727 12.864 101.719 12.952C101.719 13.04 101.711 13.116 101.695 13.18H99.9911C99.9991 13.084 100.003 12.98 100.003 12.868C100.011 12.748 100.015 12.612 100.015 12.46C100.015 11.508 99.8311 10.664 99.4631 9.928C99.1031 9.184 98.5871 8.6 97.9151 8.176C97.2431 7.752 96.4351 7.54 95.4911 7.54C94.5711 7.54 93.7631 7.76 93.0671 8.2C92.3711 8.632 91.8311 9.232 91.4471 10C91.0631 10.76 90.8711 11.644 90.8711 12.652C90.8711 13.628 91.0591 14.492 91.4351 15.244C91.8191 15.988 92.3631 16.572 93.0671 16.996C93.7711 17.42 94.6071 17.632 95.5751 17.632C96.5831 17.632 97.4551 17.396 98.1911 16.924C98.9351 16.444 99.4871 15.792 99.8471 14.968L101.479 15.58C101.007 16.708 100.251 17.6 99.2111 18.256C98.1791 18.904 96.9711 19.228 95.5871 19.228ZM90.2111 13.18V11.848H101.179L101.683 13.18H90.2111ZM110.235 19.228C109.379 19.228 108.655 19.1 108.063 18.844C107.479 18.588 107.015 18.248 106.671 17.824C106.327 17.392 106.103 16.912 105.999 16.384H105.567L105.915 14.968C106.067 15.808 106.483 16.492 107.163 17.02C107.851 17.548 108.743 17.812 109.839 17.812C110.775 17.812 111.499 17.624 112.011 17.248C112.531 16.864 112.791 16.308 112.791 15.58C112.791 14.916 112.535 14.4 112.023 14.032C111.511 13.664 110.615 13.384 109.335 13.192C107.503 12.904 106.199 12.452 105.423 11.836C104.647 11.212 104.259 10.392 104.259 9.376C104.259 8.352 104.615 7.532 105.327 6.916C106.039 6.3 107.031 5.992 108.303 5.992C109.143 5.992 109.835 6.12 110.379 6.376C110.931 6.632 111.355 6.976 111.651 7.408C111.947 7.832 112.139 8.3 112.227 8.812H112.659L112.311 10.168C112.167 9.352 111.775 8.688 111.135 8.176C110.495 7.656 109.659 7.396 108.627 7.396C107.795 7.396 107.143 7.572 106.671 7.924C106.207 8.276 105.975 8.744 105.975 9.328C105.975 9.944 106.267 10.428 106.851 10.78C107.435 11.124 108.355 11.396 109.611 11.596C111.387 11.876 112.647 12.336 113.391 12.976C114.135 13.616 114.507 14.48 114.507 15.568C114.507 16.712 114.139 17.608 113.403 18.256C112.675 18.904 111.619 19.228 110.235 19.228ZM104.187 19V14.968H105.915V19H104.187ZM112.311 10.168V6.22H114.039V10.168H112.311ZM134.448 19V17.512H136.704V10.804C136.704 9.756 136.472 8.936 136.008 8.344C135.544 7.752 134.82 7.456 133.836 7.456C133.044 7.456 132.34 7.664 131.724 8.08C131.108 8.496 130.624 9.092 130.272 9.868C129.92 10.644 129.744 11.576 129.744 12.664L129.324 10.096H129.816C130.016 8.704 130.532 7.664 131.364 6.976C132.204 6.288 133.224 5.944 134.424 5.944C135.776 5.944 136.78 6.344 137.436 7.144C138.1 7.944 138.432 9.072 138.432 10.528V17.512H140.88V19H134.448ZM116.76 19V17.512H119.316V7.708H116.76V6.22H121.044V17.512H123.312V19H116.76ZM125.76 19V17.512H128.016V10.804C128.016 9.756 127.784 8.936 127.32 8.344C126.856 7.752 126.132 7.456 125.148 7.456C124.356 7.456 123.652 7.664 123.036 8.08C122.42 8.496 121.932 9.092 121.572 9.868C121.22 10.644 121.044 11.576 121.044 12.664L120.636 10.096H121.128C121.32 8.704 121.836 7.664 122.676 6.976C123.516 6.288 124.536 5.944 125.736 5.944C127.088 5.944 128.092 6.344 128.748 7.144C129.412 7.944 129.744 9.072 129.744 10.528V17.512H132.192V19H125.76ZM152.728 19C152.4 19 152.148 18.896 151.972 18.688C151.804 18.48 151.72 18.188 151.72 17.812V13.972L151.876 13.576L151.792 12.124L151.72 11.368V10.396C151.72 9.74 151.584 9.204 151.312 8.788C151.048 8.372 150.664 8.064 150.16 7.864C149.656 7.664 149.048 7.564 148.336 7.564C147.272 7.564 146.448 7.776 145.864 8.2C145.288 8.616 144.904 9.244 144.712 10.084L143.056 9.736C143.216 8.896 143.516 8.2 143.956 7.648C144.396 7.088 144.98 6.672 145.708 6.4C146.444 6.12 147.34 5.98 148.396 5.98C149.5 5.98 150.424 6.136 151.168 6.448C151.92 6.752 152.488 7.22 152.872 7.852C153.256 8.484 153.448 9.3 153.448 10.3V17.512H155.332V19H152.728ZM146.704 19.168C145.376 19.168 144.368 18.876 143.68 18.292C142.992 17.7 142.648 16.832 142.648 15.688C142.648 14.632 142.952 13.828 143.56 13.276C144.168 12.716 145.144 12.296 146.488 12.016L152.236 10.792V12.028L146.776 13.264C145.992 13.448 145.404 13.72 145.012 14.08C144.628 14.432 144.436 14.932 144.436 15.58C144.436 16.284 144.652 16.812 145.084 17.164C145.516 17.508 146.148 17.68 146.98 17.68C147.9 17.68 148.724 17.468 149.452 17.044C150.18 16.62 150.752 15.996 151.168 15.172C151.584 14.348 151.792 13.332 151.792 12.124L152.248 14.956H151.636C151.436 16.292 150.916 17.328 150.076 18.064C149.244 18.8 148.12 19.168 146.704 19.168ZM161.417 17.512H163.697V19H157.061V17.512H159.689V7.708H157.061V6.22H161.417V17.512ZM168.785 17.512V10.828C168.785 9.78 168.549 8.956 168.077 8.356C167.605 7.756 166.861 7.456 165.845 7.456C165.021 7.456 164.273 7.66 163.601 8.068C162.929 8.476 162.397 9.068 162.005 9.844C161.613 10.62 161.417 11.56 161.417 12.664L161.021 10.108H161.501C161.653 9.236 161.945 8.496 162.377 7.888C162.809 7.272 163.361 6.804 164.033 6.484C164.713 6.156 165.493 5.992 166.373 5.992C167.765 5.992 168.801 6.396 169.481 7.204C170.169 8.004 170.513 9.136 170.513 10.6V17.512H172.973V19H166.541V17.512H168.785Z" fill="white"/>
</svg>
