<svg width="61" height="61" viewBox="0 0 61 61" fill="none" xmlns="http://www.w3.org/2000/svg">
<g clip-path="url(#clip0_135_1510)">
<path d="M30.5002 0C13.6823 0 0 13.6821 0 30.4998C0 47.3175 13.6823 60.9996 30.5002 60.9996C47.3179 60.9996 61 47.3175 61 30.4998C61 13.6821 47.3179 0 30.5002 0ZM30.5002 55.9996C16.4393 55.9996 4.99997 44.5607 4.99997 30.4998C4.99997 16.4391 16.4393 4.99997 30.5002 4.99997C44.5609 4.99997 56 16.4391 56 30.4998C56 44.5607 44.5609 55.9996 30.5002 55.9996Z" fill="#36803D"/>
<path d="M43.6944 18.7936L25.5854 36.9029L17.3058 28.6234C16.3294 27.6472 14.7466 27.6472 13.7702 28.6234C12.794 29.5998 12.794 31.1826 13.7702 32.159L23.8176 42.2063C24.3058 42.6943 24.9456 42.9385 25.5854 42.9385C26.2252 42.9385 26.8649 42.6943 27.3531 42.2063L47.23 22.3294C48.2062 21.353 48.2062 19.7702 47.23 18.7938C46.2536 17.8175 44.6706 17.8175 43.6944 18.7936Z" fill="#36803D"/>
</g>
<defs>
<clipPath id="clip0_135_1510">
<rect width="61" height="61" fill="white"/>
</clipPath>
</defs>
</svg>
