<svg width="24" height="24" viewBox="0 0 24 24" fill="none" xmlns="http://www.w3.org/2000/svg">
<path fill-rule="evenodd" clip-rule="evenodd" d="M12 4.25C12.4142 4.25 12.75 4.58579 12.75 5V8.32501C13.2288 8.4222 13.6744 8.6106 14.0681 8.87129L15.4194 7.51995C15.7123 7.22706 16.1872 7.22706 16.4801 7.51995C16.7729 7.81285 16.7729 8.28772 16.4801 8.58061L15.1287 9.93195C15.3894 10.3256 15.5778 10.7712 15.675 11.25H19C19.4142 11.25 19.75 11.5858 19.75 12C19.75 12.4142 19.4142 12.75 19 12.75H15.675C15.5778 13.2288 15.3894 13.6745 15.1287 14.0681L16.4799 15.4194C16.7728 15.7123 16.7728 16.1871 16.4799 16.48C16.187 16.7729 15.7122 16.7729 15.4193 16.48L14.068 15.1287C13.6744 15.3894 13.2288 15.5778 12.75 15.675V19C12.75 19.4142 12.4142 19.75 12 19.75C11.5858 19.75 11.25 19.4142 11.25 19V15.675C10.7712 15.5778 10.3256 15.3894 9.93196 15.1287L8.58055 16.4801C8.28766 16.773 7.81279 16.773 7.51989 16.4801C7.227 16.1872 7.227 15.7123 7.51989 15.4195L8.87131 14.068C8.61062 13.6744 8.42221 13.2288 8.32503 12.75H5C4.58579 12.75 4.25 12.4142 4.25 12C4.25 11.5858 4.58579 11.25 5 11.25H8.32503C8.4222 10.7713 8.61057 10.3257 8.87122 9.9321L7.51975 8.58064C7.22686 8.28774 7.22686 7.81287 7.51975 7.51998C7.81265 7.22708 8.28752 7.22708 8.58041 7.51998L9.93183 8.87139C10.3255 8.61065 10.7712 8.42221 11.25 8.32501V5C11.25 4.58579 11.5858 4.25 12 4.25ZM12 9.75C10.7574 9.75 9.75001 10.7574 9.75001 12C9.75001 13.2426 10.7574 14.25 12 14.25C13.2427 14.25 14.25 13.2426 14.25 12C14.25 10.7574 13.2427 9.75 12 9.75Z" fill="#1B2228"/>
</svg>
