<svg width="20" height="20" viewBox="0 0 20 20" fill="none" xmlns="http://www.w3.org/2000/svg">
<path d="M18.626 0.625H1.37598C0.961133 0.625 0.625977 0.960156 0.625977 1.375V18.625C0.625977 19.0398 0.961133 19.375 1.37598 19.375H18.626C19.0408 19.375 19.376 19.0398 19.376 18.625V1.375C19.376 0.960156 19.0408 0.625 18.626 0.625ZM16.4604 6.09766H14.9627C13.7885 6.09766 13.5611 6.65547 13.5611 7.47578V9.28281H16.3643L15.9986 12.1117H13.5611V19.375H10.6385V12.1141H8.19394V9.28281H10.6385V7.19687C10.6385 4.77578 12.1174 3.45625 14.2783 3.45625C15.3143 3.45625 16.2025 3.53359 16.4627 3.56875V6.09766H16.4604Z" fill="white"/>
</svg>
