<svg width="24" height="24" viewBox="0 0 24 24" fill="none" xmlns="http://www.w3.org/2000/svg">
<path d="M12.0003 6.50236C8.96009 6.50236 6.50652 8.95593 6.50652 11.9961C6.50652 15.0363 8.96009 17.4899 12.0003 17.4899C15.0404 17.4899 17.494 15.0363 17.494 11.9961C17.494 8.95593 15.0404 6.50236 12.0003 6.50236ZM12.0003 15.5666C10.0342 15.5666 8.42973 13.9622 8.42973 11.9961C8.42973 10.03 10.0342 8.42557 12.0003 8.42557C13.9663 8.42557 15.5708 10.03 15.5708 11.9961C15.5708 13.9622 13.9663 15.5666 12.0003 15.5666ZM17.719 4.997C17.0092 4.997 16.436 5.57022 16.436 6.28004C16.436 6.98986 17.0092 7.56307 17.719 7.56307C18.4288 7.56307 19.0021 6.99254 19.0021 6.28004C19.0023 6.11149 18.9692 5.94455 18.9048 5.78879C18.8404 5.63303 18.7459 5.49151 18.6267 5.37232C18.5076 5.25314 18.366 5.15864 18.2103 5.09424C18.0545 5.02983 17.8876 4.99679 17.719 4.997ZM22.7092 11.9961C22.7092 10.5175 22.7226 9.05236 22.6396 7.57647C22.5565 5.86218 22.1654 4.34075 20.9119 3.08718C19.6556 1.83093 18.1369 1.44254 16.4226 1.3595C14.944 1.27647 13.4788 1.28986 12.0029 1.28986C10.5244 1.28986 9.0592 1.27647 7.5833 1.3595C5.86902 1.44254 4.34759 1.83361 3.09402 3.08718C1.83777 4.34343 1.44937 5.86218 1.36634 7.57647C1.2833 9.05504 1.2967 10.5202 1.2967 11.9961C1.2967 13.472 1.2833 14.9399 1.36634 16.4158C1.44937 18.13 1.84045 19.6515 3.09402 20.905C4.35027 22.1613 5.86902 22.5497 7.5833 22.6327C9.06187 22.7158 10.5271 22.7024 12.0029 22.7024C13.4815 22.7024 14.9467 22.7158 16.4226 22.6327C18.1369 22.5497 19.6583 22.1586 20.9119 20.905C22.1681 19.6488 22.5565 18.13 22.6396 16.4158C22.7253 14.9399 22.7092 13.4747 22.7092 11.9961ZM20.3521 18.3122C20.1565 18.7997 19.9208 19.164 19.5431 19.539C19.1654 19.9166 18.8038 20.1524 18.3163 20.3479C16.9074 20.9077 13.5619 20.7818 12.0003 20.7818C10.4387 20.7818 7.09045 20.9077 5.68152 20.3506C5.19402 20.155 4.82973 19.9193 4.45473 19.5416C4.07705 19.164 3.84134 18.8024 3.6458 18.3149C3.08866 16.9033 3.21455 13.5577 3.21455 11.9961C3.21455 10.4345 3.08866 7.08629 3.6458 5.67736C3.84134 5.18986 4.07705 4.82557 4.45473 4.45057C4.83241 4.07557 5.19402 3.83718 5.68152 3.64165C7.09045 3.0845 10.4387 3.21039 12.0003 3.21039C13.5619 3.21039 16.9101 3.0845 18.319 3.64165C18.8065 3.83718 19.1708 4.0729 19.5458 4.45057C19.9235 4.82825 20.1592 5.18986 20.3547 5.67736C20.9119 7.08629 20.786 10.4345 20.786 11.9961C20.786 13.5577 20.9119 16.9033 20.3521 18.3122Z" fill="white"/>
</svg>
