<svg width="24" height="24" viewBox="0 0 24 24" fill="none" xmlns="http://www.w3.org/2000/svg">
<circle cx="12" cy="12" r="10" fill="#4864C0"/>
<path fill-rule="evenodd" clip-rule="evenodd" d="M9.58481 6.12614C9.81959 6.30187 9.9304 6.59833 9.86846 6.88498C9.79096 7.24363 9.75 7.61654 9.75 7.99986C9.75 10.8994 12.1005 13.2499 15 13.2499C15.909 13.2499 16.762 13.0195 17.506 12.6144C17.7636 12.4742 18.0793 12.497 18.314 12.6727C18.5488 12.8485 18.6596 13.1449 18.5977 13.4316C17.9408 16.4716 15.2373 18.7499 12 18.7499C8.27208 18.7499 5.25 15.7278 5.25 11.9999C5.25 9.43803 6.67744 7.21069 8.77679 6.06785C9.03436 5.92763 9.35003 5.9504 9.58481 6.12614ZM8.25736 8.31797C7.32458 9.26601 6.75 10.5661 6.75 11.9999C6.75 14.8994 9.10051 17.2499 12 17.2499C13.9682 17.2499 15.6844 16.1664 16.5831 14.563C16.075 14.6852 15.5448 14.7499 15 14.7499C11.3787 14.7499 8.42346 11.8982 8.25736 8.31797Z" fill="white"/>
</svg>
